# xmcd
#
# Track frame offsets:
#	150
#	13285
#	28662
#	43512
#	58457
#	68892
#	85362
#	101622
#	108050
#	118605
#	131515
#	144407
#	153945
#	168559
#	184682
#	203777
#
# Disc length: 2970 seconds
#
# Revision: 1
# Processed by: cddbd v1.4PL0 Copyright (c) Steve Scherf et al.
# Submitted via: audiograbber 1.80
#
DISCID=de0b9810
DTITLE=Geoff Bartley - Hear That Wind Howl
DYEAR=1900
DGENRE=
TTITLE0=If I Had a Posseession Over Judgement Day
TTITLE1=Sittin On Top of the World
TTITLE2=Grinn In Your Face
TTITLE3=The Dying Crapshooter's Blues
TTITLE4=Papa's On the Housetop
TTITLE5=Prize Your Reputation
TTITLE6=Crossroads Blues
TTITLE7=Lemonade
TTITLE8=When You Got a Good Friend
TTITLE9=Everything They Told Me
TTITLE10=Peaceable Street
TTITLE11=The Fullerton Street Strut
TTITLE12=No Money Down
TTITLE13=Duncan and Brady
TTITLE14=Denomination Blues
TTITLE15=Come On In My Kitchen
EXTD=
EXTT0=
EXTT1=
EXTT2=
EXTT3=
EXTT4=
EXTT5=
EXTT6=
EXTT7=
EXTT8=
EXTT9=
EXTT10=
EXTT11=
EXTT12=
EXTT13=
EXTT14=
EXTT15=
PLAYORDER=
